<svg width="30" height="29" viewBox="0 0 30 29" fill="none" xmlns="http://www.w3.org/2000/svg">
<path d="M12.5352 21.3464L8.83081 24.0982C8.56661 24.305 8.25106 24.4359 7.91807 24.4769C7.58507 24.5179 7.24721 24.4673 6.94075 24.3308C6.6343 24.1942 6.37084 23.9767 6.17867 23.7017C5.9865 23.4267 5.87288 23.1045 5.85001 22.7698V8.39823C5.86923 7.86868 5.9926 7.34809 6.21307 6.86623C6.43355 6.38437 6.7468 5.95067 7.13494 5.58991C7.52308 5.22914 7.9785 4.9484 8.47518 4.7637C8.97186 4.579 9.50006 4.49397 10.0296 4.51348H17.3304C18.3993 4.47611 19.4395 4.86402 20.2229 5.59219C21.0064 6.32037 21.4692 7.32942 21.51 8.39823V22.772C21.4877 23.1069 21.3743 23.4295 21.1822 23.7048C20.9901 23.9801 20.7265 24.1978 20.4198 24.3344C20.1131 24.471 19.775 24.5212 19.4418 24.4798C19.1087 24.4384 18.7931 24.3068 18.5292 24.0993L14.8248 21.3474C14.4922 21.1053 14.0914 20.9749 13.68 20.9749C13.2686 20.9749 12.8678 21.1042 12.5352 21.3464Z" stroke="#444444" stroke-width="1.8" stroke-linecap="round" stroke-linejoin="round"/>
</svg>
