<svg width="23" height="23" viewBox="0 0 23 23" fill="none" xmlns="http://www.w3.org/2000/svg">
<path d="M18.7468 5.90886C18.4784 4.95581 17.9687 4.08812 17.2669 3.38963C16.5651 2.69114 15.6951 2.18548 14.7408 1.9215C14.4612 1.85136 14.1686 1.85136 13.889 1.9215C13.6177 2.00511 13.3705 2.15279 13.1683 2.35206L11.4648 4.06494L4.13589 11.3938C3.86881 11.639 3.69651 11.9704 3.64917 12.3298L3.19053 15.5309C3.15068 15.7883 3.17315 16.0515 3.25605 16.2985C3.34029 16.5437 3.47788 16.7683 3.65853 16.9537C3.83824 17.1409 4.05914 17.2813 4.30437 17.3655C4.48034 17.4217 4.66286 17.4497 4.84725 17.4497C4.92494 17.4591 5.00356 17.4591 5.08125 17.4497L8.31045 16.9911C8.66059 16.9273 8.98528 16.7649 9.24645 16.5231L18.2976 7.47198C18.4923 7.26792 18.6366 7.02109 18.7188 6.75126C18.7955 6.47677 18.8051 6.18785 18.7468 5.90886ZM17.3709 6.37686C17.3608 6.42272 17.3381 6.46485 17.3054 6.49854L16.0886 7.71534L12.953 4.61718L14.1604 3.40038C14.195 3.36677 14.2366 3.3412 14.2821 3.3255C14.319 3.31599 14.3576 3.31599 14.3944 3.3255C15.1015 3.52309 15.7466 3.89743 16.269 4.41326C16.7913 4.92908 17.1738 5.56941 17.3803 6.2739C17.3846 6.30849 17.3814 6.34361 17.3709 6.37686ZM18.9247 20.5947H3.54621C3.36003 20.5947 3.18147 20.5207 3.04982 20.3891C2.91817 20.2574 2.84421 20.0789 2.84421 19.8927C2.84421 19.7065 2.91817 19.528 3.04982 19.3963C3.18147 19.2647 3.36003 19.1907 3.54621 19.1907H18.9153C19.1015 19.1907 19.2801 19.2647 19.4117 19.3963C19.5434 19.528 19.6173 19.7065 19.6173 19.8927C19.6173 20.0789 19.5434 20.2574 19.4117 20.3891C19.2801 20.5207 19.1015 20.5947 18.9153 20.5947H18.9247Z" fill="#B4B4B4"/>
</svg>
