<svg width="24" height="24" viewBox="0 0 24 24" fill="none" xmlns="http://www.w3.org/2000/svg">
<path fill-rule="evenodd" clip-rule="evenodd" d="M3 3.93945L5.65085 6.59031C7.13473 5.29047 9.20179 4.2501 12 4.2501C15.7908 4.2501 18.2398 6.15954 19.7147 8.03673C20.4486 8.97072 20.9465 9.90117 21.2614 10.5972C21.4193 10.9462 21.5323 11.2388 21.6067 11.4471C21.6439 11.5513 21.6715 11.6346 21.6903 11.6935C21.6997 11.723 21.7069 11.7464 21.712 11.7633C21.7146 11.7717 21.7166 11.7786 21.7181 11.7837L21.7188 11.7861L21.72 11.7902L21.7206 11.7924L21.7209 11.7933C21.721 11.7937 21.7211 11.7941 21 12.0001C21.7211 12.2061 21.721 12.2065 21.7209 12.2069L21.7206 12.2078L21.72 12.21C21.7195 12.2118 21.7189 12.2139 21.7181 12.2165C21.7166 12.2216 21.7146 12.2285 21.712 12.2369C21.7069 12.2538 21.6997 12.2772 21.6903 12.3067C21.6715 12.3656 21.6439 12.4489 21.6067 12.5531C21.5323 12.7614 21.4193 13.054 21.2614 13.403C20.9465 14.099 20.4486 15.0295 19.7147 15.9635C19.0888 16.76 18.2876 17.5624 17.2828 18.2222L20.0607 21.0001L19.0607 22.0001L2 4.93945L3 3.93945ZM18.5352 15.0367C17.9383 15.7964 17.1714 16.549 16.1952 17.1347L13.8367 14.7761L14.3367 14.2589C14.9014 13.6749 15.25 12.8774 15.25 12.0001C15.25 10.2052 13.7949 8.7501 12 8.7501C11.1227 8.7501 10.3252 9.09872 9.74119 9.66337L9.22397 10.1634L6.7137 7.65316C7.96735 6.58034 9.68139 5.7501 12 5.7501C15.2091 5.7501 17.2602 7.34065 18.5352 8.96346C19.1764 9.77948 19.6159 10.599 19.8948 11.2155C20.0338 11.5228 20.1317 11.777 20.1941 11.9516C20.2001 11.9685 20.2058 11.9847 20.2112 12.0001C20.2058 12.0155 20.2001 12.0317 20.1941 12.0486C20.1317 12.2232 20.0338 12.4774 19.8948 12.7847C19.6159 13.4012 19.1764 14.2207 18.5352 15.0367ZM13.2583 13.2163L12.7759 13.7153L10.2848 11.2242L10.7838 10.7418C11.0994 10.4366 11.5271 10.2501 12 10.2501C12.9665 10.2501 13.75 11.0336 13.75 12.0001C13.75 12.473 13.5634 12.9007 13.2583 13.2163Z" fill="black"/>
<path d="M3.73568 8.79646C3.29304 9.46145 2.9674 10.0913 2.73851 10.5972C2.58065 10.9462 2.46765 11.2388 2.39327 11.4471C2.35605 11.5513 2.32843 11.6346 2.30962 11.6935C2.30022 11.723 2.29301 11.7464 2.28791 11.7633C2.28536 11.7717 2.28334 11.7786 2.28183 11.7837L2.28102 11.7865L2.27995 11.7902L2.27929 11.7924L2.27903 11.7933C2.27892 11.7937 2.27882 11.7941 2.99997 12.0001L2.27882 11.7941L2.21996 12.0001L2.27882 12.2061L2.99997 12.0001C2.27882 12.2061 2.27892 12.2065 2.27903 12.2069L2.27929 12.2078L2.27995 12.21C2.28045 12.2118 2.28107 12.2139 2.28183 12.2165C2.28334 12.2216 2.28536 12.2285 2.28791 12.2369C2.29301 12.2538 2.30022 12.2772 2.30962 12.3067C2.32843 12.3656 2.35605 12.4489 2.39327 12.5531C2.46765 12.7614 2.58065 13.054 2.73851 13.403C3.05339 14.099 3.55138 15.0295 4.28523 15.9635C5.76016 17.8407 8.20914 19.7501 12 19.7501C12.8727 19.7501 13.6744 19.6489 14.4094 19.4702L13.1214 18.1822C12.7643 18.2265 12.3907 18.2501 12 18.2501C8.79079 18.2501 6.73977 16.6595 5.46471 15.0367C4.82355 14.2207 4.38404 13.4012 4.10517 12.7847C3.96616 12.4774 3.86822 12.2232 3.80588 12.0486C3.79983 12.0317 3.79412 12.0155 3.78874 12.0001C3.79412 11.9847 3.79983 11.9685 3.80588 11.9516C3.86822 11.777 3.96616 11.5228 4.10517 11.2155C4.27838 10.8326 4.51356 10.3714 4.82053 9.8813L3.73568 8.79646Z" fill="black"/>
<path d="M21 12.0001L21.7211 11.7941L21.78 12.0001L21.7211 12.2061L21 12.0001Z" fill="black"/>
</svg>
