<svg width="26" height="27" viewBox="0 0 26 27" fill="none" xmlns="http://www.w3.org/2000/svg">
<path d="M12.1013 4.06977C12.2066 3.43563 12.7565 2.96997 13.4 2.96997H14.6788C15.3223 2.96997 15.8722 3.43563 15.9775 4.06977L16.1519 5.11575C16.2338 5.61183 16.6012 6.00963 17.0645 6.20385C17.5301 6.39573 18.0648 6.36999 18.4743 6.07749L19.3366 5.4609C19.5902 5.27961 19.8999 5.19422 20.2106 5.21994C20.5213 5.24565 20.8128 5.38079 21.0331 5.6013L21.9375 6.50688C22.3938 6.96201 22.4523 7.67922 22.0779 8.20338L21.4613 9.06567C21.1688 9.47517 21.1431 10.0087 21.3361 10.4743C21.5292 10.9388 21.927 11.3051 22.4242 11.387L23.469 11.5625C24.1044 11.6678 24.5688 12.2177 24.5688 12.86V14.14C24.5688 14.7835 24.1044 15.3334 23.469 15.4387L22.4242 15.613C21.927 15.6949 21.5292 16.0611 21.3361 16.5256C21.1431 16.9913 21.1688 17.5248 21.4613 17.9343L22.0779 18.7977C22.4523 19.3207 22.3926 20.0379 21.9375 20.4942L21.0319 21.3986C20.8117 21.6188 20.5204 21.7538 20.21 21.7795C19.8996 21.8052 19.5901 21.72 19.3366 21.539L18.4731 20.9224C18.0636 20.6299 17.5301 20.6042 17.0656 20.7973C16.6011 20.9903 16.2349 21.3881 16.1519 21.8842L15.9775 22.9302C15.8722 23.5643 15.3223 24.03 14.6788 24.03H13.3989C12.7554 24.03 12.2066 23.5643 12.1002 22.9302L11.927 21.8842C11.8439 21.3881 11.4777 20.9903 11.0132 20.7961C10.5476 20.6042 10.014 20.6299 9.60455 20.9224L8.74109 21.539C8.2181 21.9134 7.50089 21.8538 7.04459 21.3986L6.14018 20.4931C5.91967 20.2727 5.78453 19.9812 5.75881 19.6706C5.7331 19.3599 5.81849 19.0502 5.99978 18.7966L6.61637 17.9343C6.90887 17.5248 6.93578 16.9913 6.74273 16.5256C6.54968 16.0611 6.15188 15.6949 5.65463 15.613L4.60865 15.4375C3.97451 15.3322 3.50885 14.7823 3.50885 14.14V12.86C3.50885 12.2165 3.97451 11.6666 4.60865 11.5613L5.65463 11.387C6.15071 11.3051 6.54968 10.9388 6.74273 10.4743C6.93578 10.0087 6.91004 9.47517 6.61754 9.06567L6.00095 8.20221C5.81966 7.9486 5.73427 7.63889 5.75998 7.32821C5.7857 7.01753 5.92084 6.72606 6.14135 6.50571L7.04576 5.6013C7.26611 5.38079 7.55758 5.24565 7.86826 5.21994C8.17893 5.19422 8.48865 5.27961 8.74226 5.4609L9.60455 6.07749C10.014 6.36999 10.5487 6.39573 11.0132 6.20268C11.4777 6.00963 11.8439 5.61183 11.9258 5.11575L12.1013 4.06977Z" stroke="#444444" stroke-width="1.755" stroke-linecap="round" stroke-linejoin="round"/>
<path d="M17.55 13.5002C17.55 14.4311 17.1802 15.3239 16.522 15.9822C15.8637 16.6404 14.9709 17.0102 14.04 17.0102C13.1091 17.0102 12.2163 16.6404 11.5581 15.9822C10.8998 15.3239 10.53 14.4311 10.53 13.5002C10.53 12.5693 10.8998 11.6765 11.5581 11.0183C12.2163 10.36 13.1091 9.99023 14.04 9.99023C14.9709 9.99023 15.8637 10.36 16.522 11.0183C17.1802 11.6765 17.55 12.5693 17.55 13.5002Z" stroke="#444444" stroke-width="1.755" stroke-linecap="round" stroke-linejoin="round"/>
</svg>
