<svg width="48" height="28" viewBox="0 0 48 28" fill="none" xmlns="http://www.w3.org/2000/svg">
<path d="M13.0102 15.4212H35.4102M13.0102 15.4212C13.0102 15.4212 12.6399 9.79623 14.339 6.87884C16.7271 2.77847 19.9753 1.25824 24.5898 1.37375C29.0129 1.48448 32.1622 3.13331 34.2712 6.87884C35.9224 9.81144 35.4102 15.4212 35.4102 15.4212M13.0102 15.4212C13.0102 15.4212 9.2753 17.4134 7.12543 18.9331C4.97556 20.4528 2 23.2043 2 23.2043M35.4102 15.4212C35.4102 15.4212 38.8811 17.1494 41.1051 18.7433C43.3291 20.3371 46.8 23.584 46.8 23.584C46.8 23.584 40.0487 26.8433 35.4102 26.6213C31.4054 26.4295 25.7288 23.584 25.7288 23.584M2 23.2043C2 23.2043 9.29757 26.6664 14.339 26.6213C18.9827 26.5797 25.7288 23.584 25.7288 23.584M2 23.2043C2 23.2043 9.39641 20.1922 14.339 20.3568C18.9595 20.5108 25.7288 23.584 25.7288 23.584M10.3525 7.44837C11.6172 7.91279 13.7695 8.30261 13.7695 8.30261C13.7695 8.30261 15.8438 8.50849 17.1864 8.39752M10.3525 10.8653C11.6172 11.3297 13.7695 11.7196 13.7695 11.7196C13.7695 11.7196 15.8438 11.9254 17.1864 11.8145" stroke="#BFBFBF" stroke-width="2.27797" stroke-linecap="round" stroke-linejoin="round"/>
</svg>
