<svg width="34" height="29" viewBox="0 0 34 29" fill="none" xmlns="http://www.w3.org/2000/svg">
<path d="M6.88835 27.3467H27.445C28.8078 27.3467 30.1147 26.8053 31.0784 25.8417C32.042 24.878 32.5834 23.5711 32.5834 22.2083V10.2183C32.5836 9.5434 32.4508 8.87506 32.1927 8.25145C31.9346 7.62785 31.5561 7.06121 31.079 6.58389C30.6018 6.10658 30.0353 5.72794 29.4118 5.46961C28.7882 5.21128 28.1199 5.07832 27.445 5.07832H25.08C24.4 5.07832 23.7467 4.80665 23.2634 4.32499L21.3467 2.40665C20.865 1.92461 20.2115 1.65364 19.53 1.65332H14.8034C14.12 1.65332 13.47 1.92499 12.9867 2.40665L11.07 4.32499C10.5867 4.80832 9.93335 5.07832 9.25335 5.07832H6.88835C6.21344 5.07832 5.54513 5.21128 4.92161 5.46961C4.29809 5.72794 3.73157 6.10658 3.25441 6.58389C2.77725 7.06121 2.3988 7.62785 2.14067 8.25145C1.88255 8.87506 1.7498 9.5434 1.75002 10.2183V22.2083C1.75002 23.5711 2.29138 24.878 3.255 25.8417C4.21863 26.8053 5.52558 27.3467 6.88835 27.3467Z" stroke="#888888" stroke-width="2.5" stroke-linecap="round" stroke-linejoin="round"/>
<path d="M17.1668 22.2083C18.984 22.2083 20.7267 21.4865 22.0116 20.2015C23.2966 18.9166 24.0184 17.1738 24.0184 15.3567C24.0184 13.5395 23.2966 11.7967 22.0116 10.5118C20.7267 9.22688 18.984 8.505 17.1668 8.505C15.3496 8.505 13.6069 9.22688 12.3219 10.5118C11.037 11.7967 10.3151 13.5395 10.3151 15.3567C10.3151 17.1738 11.037 18.9166 12.3219 20.2015C13.6069 21.4865 15.3496 22.2083 17.1668 22.2083Z" stroke="#888888" stroke-width="2.5" stroke-linecap="round" stroke-linejoin="round"/>
</svg>
