<svg width="26" height="26" viewBox="0 0 26 26" fill="none" xmlns="http://www.w3.org/2000/svg">
<circle cx="13" cy="13" r="13" fill="#A6CC7D"/>
<path d="M13 6.5C14.4588 6.5 15.8581 7.07982 16.8896 8.11133C17.9209 9.14273 18.4999 10.5415 18.5 12C18.5 16.278 13 19.9453 13 19.9453C13 19.9453 7.5 16.278 7.5 12C7.50009 10.5415 8.07913 9.14273 9.11035 8.11133C10.1419 7.07982 11.5412 6.5 13 6.5ZM13 10.167C11.9875 10.167 11.1662 10.9876 11.166 12C11.166 13.0126 11.9874 13.834 13 13.834C14.0126 13.834 14.833 13.0126 14.833 12C14.8328 10.9876 14.0124 10.167 13 10.167Z" fill="white"/>
</svg>
